<?xml version="1.0" encoding="utf-8"?>
<!-- Generator: Adobe Illustrator 17.0.0, SVG Export Plug-In . SVG Version: 6.00 Build 0)  -->
<!DOCTYPE svg PUBLIC "-//W3C//DTD SVG 1.1//EN" "http://www.w3.org/Graphics/SVG/1.1/DTD/svg11.dtd">
<svg version="1.1" id="Layer_1" xmlns="http://www.w3.org/2000/svg" xmlns:xlink="http://www.w3.org/1999/xlink" x="0px" y="0px"
	 width="160px" height="600px" viewBox="0 0 160 600" enable-background="new 0 0 160 600" xml:space="preserve">
<g id="OtUmx9_1_">
	
		<image overflow="visible" width="160" height="600" id="OtUmx9_2_" xlink:href="B285854C8EDC36D8.jpg"  transform="matrix(1 0 0 1 445.1014 24.058)">
	</image>
</g>
<g>
	<g>
		<path fill="#0A193C" d="M36.009,323.443v-1.691c-5.264-0.518-8.318-3.196-9.682-6.11l1.27-0.657
			c1.128,2.443,3.713,4.84,8.412,5.357v-2.82c-3.478-0.423-5.123-2.162-5.922-3.807l1.27-0.658c0.563,1.223,1.785,2.632,4.652,3.055
			v-6.768c-4.935-0.188-8.694-4.041-8.694-9.071c0-4.981,3.76-8.882,8.694-9.07v-1.41h1.41v1.41h2.819v-1.41h1.41v1.457
			c4.089,0.376,6.908,2.444,8.318,5.217l-1.269,0.658c-1.175-2.35-3.666-4.183-7.05-4.465v2.867c2.396,0.329,3.807,1.41,4.559,2.866
			l-1.269,0.658c-0.564-1.034-1.504-1.833-3.29-2.114v6.768c4.935,0.188,8.741,4.088,8.741,9.07c0,5.028-3.807,8.929-8.741,9.07
			v1.598h-1.41v-1.598h-2.819v1.598H36.009z M36.009,307.935v-2.82c-2.538-0.188-4.465-2.209-4.465-4.841
			c0-2.584,1.927-4.652,4.465-4.84v-2.82c-4.136,0.188-7.284,3.478-7.284,7.66C28.725,304.504,31.873,307.746,36.009,307.935z
			 M36.009,303.705v-6.863c-1.739,0.188-3.055,1.646-3.055,3.431C32.954,302.106,34.27,303.517,36.009,303.705z M40.239,295.433
			v-2.82h-2.819v2.82H40.239z M37.419,296.842v19.364h2.819v-19.364H37.419z M40.239,320.436v-2.82h-2.819v2.82H40.239z
			 M41.649,305.114v2.82c2.538,0.188,4.512,2.256,4.512,4.841c0,2.632-1.974,4.699-4.512,4.84v2.82
			c4.136-0.141,7.331-3.431,7.331-7.66C48.98,308.592,45.784,305.303,41.649,305.114z M41.649,309.344v6.862
			c1.739-0.142,3.102-1.599,3.102-3.431C44.75,310.989,43.388,309.532,41.649,309.344z"/>
		<path fill="#0A193C" d="M65.854,290.169l-11.139,11.42l-1.034-1.035l10.152-10.386H65.854z M79.343,323.067H55.373v-1.41h9.964
			v-2.819h-9.964v-1.41h9.964v-20.726l-7.614,7.802l-1.034-1.034l13.019-13.3h1.269v27.258h8.367v1.41H66.746v2.819h12.596V323.067z
			 M66.746,295.292v22.136h2.82v-25.05L66.746,295.292z"/>
		<path fill="#0A193C" d="M92.926,290.169l-11.139,11.42l-1.033-1.035l10.15-10.386H92.926z M106.414,323.067H82.445v-1.41h9.963
			v-2.819h-9.963v-1.41h9.963v-20.726l-7.613,7.802l-1.033-1.034l13.018-13.3h1.27v27.258h8.365v1.41H93.818v2.819h12.596V323.067z
			 M93.818,295.292v22.136h2.82v-25.05L93.818,295.292z"/>
		<path fill="#0A193C" d="M108.764,313.433c0-3.947,1.88-6.062,4.418-7.425c-2.068-1.316-3.525-3.432-3.525-6.815
			c0-5.734,4.56-9.4,11.562-9.4c7.003,0,11.562,3.666,11.562,9.4c0,3.383-1.457,5.499-3.524,6.815
			c2.537,1.362,4.417,3.478,4.417,7.425c0,5.546-4.465,10.011-12.454,10.011S108.764,318.979,108.764,313.433z M132.263,313.433
			c0-3.478-1.928-5.451-4.465-6.673c-1.081,0.47-2.397,0.893-3.572,1.175c2.773,0.846,5.217,2.256,5.217,5.404
			c0,3.29-2.585,5.875-8.225,5.875s-8.225-2.585-8.225-5.875c0-3.148,2.444-4.559,5.217-5.404c-1.175-0.282-2.49-0.705-3.571-1.175
			c-2.538,1.222-4.465,3.195-4.465,6.673c0,4.794,3.994,8.601,11.044,8.601S132.263,318.227,132.263,313.433z M128.551,299.051
			c0,2.868-2.068,4.183-4.794,5.029c1.362,0.329,2.679,0.752,3.947,1.223c2.115-1.128,3.666-2.914,3.666-6.11
			c0-4.889-3.995-7.99-10.151-7.99s-10.151,3.102-10.151,7.99c0,3.196,1.551,4.982,3.666,6.11c1.269-0.471,2.585-0.894,3.947-1.223
			c-2.726-0.846-4.793-2.161-4.793-5.029c0-3.102,2.443-5.028,7.331-5.028S128.551,295.95,128.551,299.051z M128.033,313.339
			c0-3.008-3.055-3.995-6.814-4.841c-3.76,0.846-6.814,1.833-6.814,4.841c0,2.538,2.115,4.465,6.814,4.465
			C125.919,317.804,128.033,315.877,128.033,313.339z M127.14,299.051c0-2.256-1.974-3.618-5.922-3.618
			c-3.947,0-5.922,1.362-5.922,3.618c0,2.539,2.585,3.478,5.922,4.325C124.555,302.529,127.14,301.59,127.14,299.051z
			 M125.919,306.055c-1.175-0.423-2.351-0.705-4.7-1.27c-2.35,0.564-3.524,0.847-4.699,1.27c1.269,0.423,3.242,0.846,4.699,1.128
			C122.676,306.9,124.649,306.478,125.919,306.055z"/>
	</g>
	<g>
		<path fill="#0A193C" d="M67.661,279.282h4.642v0.675h-3.886v2.291h3.507v0.664h-3.507v3.109h-0.756V279.282z"/>
		<path fill="#0A193C" d="M72.864,281.142h1.749v1.79h0.021c0.388-1.053,1.278-1.953,2.505-1.922l-0.103,0.787
			c-0.982-0.01-1.82,0.818-2.219,2.086c-0.153,0.48-0.204,1.012-0.204,1.636v0.501h-0.757v-4.223h-0.992V281.142z"/>
		<path fill="#0A193C" d="M77.73,283.576c0-1.431,1.053-2.566,2.699-2.566c1.636,0,2.689,1.135,2.689,2.566
			c0,1.411-1.043,2.546-2.71,2.546C78.783,286.122,77.73,284.988,77.73,283.576z M82.331,283.576c0-1.104-0.778-1.891-1.902-1.891
			c-1.135,0-1.912,0.798-1.912,1.891c0,1.074,0.778,1.871,1.892,1.871C81.554,285.447,82.331,284.65,82.331,283.576z"/>
		<path fill="#0A193C" d="M83.853,281.142h1.749v1.687h0.021c0.347-0.879,1.063-1.82,2.331-1.82c0.961,0,1.606,0.552,1.606,1.626
			v0.235h0.021c0.378-0.951,1.115-1.861,2.383-1.861c0.992,0,1.605,0.552,1.605,1.657v2.249c0,0.368,0.205,0.48,0.522,0.48
			c0.123,0,0.307-0.03,0.409-0.061l0.164,0.623c-0.245,0.072-0.491,0.113-0.726,0.113c-0.695,0-1.114-0.327-1.114-1.012v-2.209
			c0-0.787-0.307-1.165-0.982-1.165c-0.921,0-1.688,0.838-2.045,2.065c-0.154,0.511-0.215,1.094-0.215,1.728v0.542h-0.746v-3.18
			c0-0.788-0.327-1.155-0.982-1.155c-0.91,0-1.677,0.838-2.035,2.065c-0.154,0.511-0.215,1.094-0.215,1.728v0.542h-0.757v-4.223
			h-0.992V281.142z"/>
	</g>
	<path fill="#0A193C" d="M82.265,324.01 M79.301,330.602l1.686,3.659h0.03l1.538-3.659h0.542l1.588,3.659h0.03l1.627-3.659h0.809
		l-2.2,4.734H84.42l-1.588-3.629h-0.02l-1.538,3.629h-0.532l-2.249-4.734H79.301z M87.573,333.324c0-1.025,0.454-1.864,1.272-2.357
		c0.513-0.305,1.164-0.493,2.062-0.493c0.463,0,0.947,0.039,1.361,0.079v3.659c0,0.375,0.207,0.493,0.483,0.493
		c0.138,0,0.316-0.039,0.415-0.069l0.148,0.602c-0.217,0.079-0.473,0.118-0.72,0.118c-0.562,0-0.976-0.276-1.016-0.927
		c0-0.158-0.01-0.335,0-0.582h-0.02c-0.355,0.878-1.105,1.558-2.14,1.558C88.421,335.405,87.573,334.725,87.573,333.324z
		 M91.538,331.431v-0.276c-0.188-0.02-0.415-0.029-0.74-0.029c-0.631,0-1.164,0.148-1.558,0.404
		c-0.572,0.365-0.908,0.977-0.908,1.766c0,0.887,0.424,1.459,1.184,1.459C90.492,334.754,91.538,333.699,91.538,331.431z
		 M95.914,334.883l-2.436-4.28h0.828l2.002,3.491h0.02l1.795-3.491h0.789l-3.659,7.042h-0.779L95.914,334.883z M100.37,330.561
		l-0.604,0.372l-0.178-0.293l0.641-0.368l-0.641-0.367l0.178-0.293l0.604,0.372l-0.01-0.661h0.356l-0.01,0.661l0.609-0.377
		l0.178,0.293l-0.645,0.372l0.645,0.373l-0.178,0.293l-0.609-0.377l0.01,0.64h-0.356L100.37,330.561z"/>
	<path fill="#0A193C" d="M57.821,333.204c0-1.453,1.069-2.605,2.74-2.605c1.661,0,2.73,1.152,2.73,2.605
		c0,1.433-1.058,2.585-2.751,2.585C58.89,335.789,57.821,334.637,57.821,333.204z M62.492,333.204c0-1.121-0.789-1.92-1.931-1.92
		c-1.152,0-1.941,0.81-1.941,1.92c0,1.09,0.789,1.899,1.92,1.899C61.703,335.104,62.492,334.294,62.492,333.204z M64.036,330.734
		h1.775v1.837h0.021c0.415-1.028,1.297-1.972,2.584-1.972c1.048,0,1.671,0.581,1.671,1.733v2.232c0,0.374,0.208,0.488,0.529,0.488
		c0.125,0,0.311-0.031,0.415-0.062l0.166,0.633c-0.249,0.073-0.498,0.114-0.737,0.114c-0.706,0-1.132-0.332-1.132-1.027v-2.263
		c0-0.737-0.27-1.162-1.027-1.162c-1.007,0-1.91,1.017-2.294,2.314c-0.156,0.519-0.197,1.027-0.197,1.598v0.488h-0.768v-4.287
		h-1.007V330.734z M71.902,333.278c0-1.547,1.09-2.678,2.854-2.678c1.142,0,2.065,0.498,2.065,1.442
		c0,0.904-0.779,1.495-2.636,1.495c-0.498,0-1.017-0.02-1.453-0.083c0.041,1.048,0.82,1.65,2.024,1.65
		c0.727,0,1.214-0.165,1.671-0.363l0.239,0.612c-0.508,0.239-1.162,0.436-1.972,0.436C72.877,335.789,71.902,334.71,71.902,333.278z
		 M74.154,332.872c1.411,0,1.858-0.363,1.858-0.851c0-0.498-0.519-0.737-1.256-0.737c-1.08,0-1.848,0.571-1.993,1.494
		C73.178,332.841,73.676,332.872,74.154,332.872z"/>
</g>
</svg>
