<?xml version="1.0" encoding="utf-8"?>
<!-- Generator: Adobe Illustrator 17.0.0, SVG Export Plug-In . SVG Version: 6.00 Build 0)  -->
<!DOCTYPE svg PUBLIC "-//W3C//DTD SVG 1.1//EN" "http://www.w3.org/Graphics/SVG/1.1/DTD/svg11.dtd">
<svg version="1.1" id="Layer_1" xmlns="http://www.w3.org/2000/svg" xmlns:xlink="http://www.w3.org/1999/xlink" x="0px" y="0px"
	 width="160px" height="600px" viewBox="0 0 160 600" enable-background="new 0 0 160 600" xml:space="preserve">
<g>
	<path fill="#FFFFFF" d="M13.961,325.063c0.806,0.493,1.963,0.74,2.938,0.74c1.235,0,1.872-0.299,1.872-0.857
		c0-1.274-5.343-0.014-5.343-3.328c0-1.82,1.599-2.756,3.627-2.756c1.3,0,2.847,0.324,3.796,0.884l-0.728,1.599
		c-0.78-0.402-2.054-0.663-2.99-0.663c-1.066,0-1.482,0.299-1.482,0.754c0,1.534,5.343,0.078,5.343,3.445
		c0,1.769-1.69,2.743-4.083,2.743c-1.378,0-2.808-0.312-3.796-0.962L13.961,325.063z"/>
	<path fill="#FFFFFF" d="M21.761,327.494l3.9-8.606h1.937l4.225,8.606h-2.431l-0.832-1.807h-3.705l-0.741,1.807H21.761z
		 M26.623,321.475h-0.026l-0.988,2.393h2.106L26.623,321.475z"/>
	<path fill="#FFFFFF" d="M33.019,318.927h2.171v6.722h4.277v1.846h-6.448V318.927z"/>
	<path fill="#FFFFFF" d="M40.637,318.927h6.656v1.846h-4.485v1.482h4.083v1.846h-4.083v1.548h4.563v1.846h-6.734V318.927z"/>
	<path fill="#FFFFFF" d="M52.362,318.927h6.656v1.846h-4.485v1.482h4.083v1.846h-4.083v1.548h4.563v1.846h-6.734V318.927z"/>
	<path fill="#FFFFFF" d="M60.994,318.927h1.885l5.018,5.213h0.026v-5.213h2.171v8.567H68.3l-5.109-5.343h-0.026v5.343h-2.171
		V318.927z"/>
	<path fill="#FFFFFF" d="M72.382,318.927h3.602c0.884,0,1.495,0.065,2.054,0.195c1.859,0.441,3.342,1.689,3.342,3.952
		c0,2.313-1.561,3.51-3.003,4.017c-1.002,0.352-2.133,0.403-3.134,0.403h-2.86V318.927z M75.372,325.648
		c0.78,0,1.392-0.053,1.898-0.195c1.053-0.299,1.885-1.105,1.885-2.379c0-1.262-0.793-1.911-1.677-2.158
		c-0.494-0.144-1.001-0.144-1.833-0.144h-1.092v4.876H75.372z"/>
	<path fill="#FFFFFF" d="M83.471,325.063c0.806,0.493,1.963,0.74,2.938,0.74c1.235,0,1.872-0.299,1.872-0.857
		c0-1.274-5.343-0.014-5.343-3.328c0-1.82,1.599-2.756,3.627-2.756c1.3,0,2.848,0.324,3.796,0.884l-0.728,1.599
		c-0.78-0.402-2.054-0.663-2.99-0.663c-1.066,0-1.482,0.299-1.482,0.754c0,1.534,5.344,0.078,5.344,3.445
		c0,1.769-1.69,2.743-4.082,2.743c-1.378,0-2.809-0.312-3.797-0.962L83.471,325.063z"/>
	<path fill="#FFFFFF" d="M93.975,327.494l3.9-8.606h1.938l4.225,8.606h-2.431l-0.832-1.807H97.07l-0.741,1.807H93.975z
		 M98.837,321.475h-0.025l-0.988,2.393h2.105L98.837,321.475z"/>
	<path fill="#FFFFFF" d="M105.234,318.927h3.354c0.729,0,1.235,0.065,1.69,0.195c1.339,0.377,2.184,1.273,2.184,2.69
		c0,1.443-0.871,2.458-2.457,2.835c-0.429,0.104-0.923,0.143-1.599,0.143h-1.001v2.704h-2.171V318.927z M108.328,322.996
		c0.546,0,0.832-0.052,1.053-0.117c0.611-0.182,0.858-0.559,0.858-1.04c0-0.48-0.247-0.819-0.819-0.988
		c-0.221-0.064-0.455-0.078-0.884-0.078h-1.131v2.224H108.328z"/>
	<path fill="#FFFFFF" d="M119.118,324.062c0.715,0.403,0.962,1.834,2.015,1.834c0.234,0,0.455-0.053,0.663-0.131l0.39,1.639
		c-0.441,0.169-0.975,0.221-1.378,0.221c-2.769,0-3.042-3.172-3.965-3.172h-0.468v3.042h-2.172v-8.567h3.537
		c2.34,0,3.627,0.897,3.627,2.704c0,1.274-0.807,2.146-2.249,2.405V324.062z M117.518,322.71c1.157,0,1.625-0.364,1.625-1.001
		c0-0.689-0.468-0.937-1.469-0.937h-1.3v1.938H117.518z"/>
	<path fill="#FFFFFF" d="M123.486,318.927h2.171v8.567h-2.171V318.927z"/>
	<path fill="#FFFFFF" d="M127.943,318.927h2.172v6.722h4.277v1.846h-6.449V318.927z"/>
	<path fill="#FFFFFF" d="M141.385,318.927h2.146l-3.081,4.771h2.235v-2.185h1.964v2.185h2.235v1.677h-2.235v2.249h-1.964v-2.249
		h-3.926l-0.806-1.131L141.385,318.927z"/>
</g>
<g>
	<g>
		<g id="XMLID_95_">
			<path id="XMLID_99_" fill="#0A193C" d="M91.812,305.735c0.451,0,0.687-0.042,0.869-0.096c0.504-0.15,0.708-0.461,0.708-0.858
				s-0.204-0.676-0.676-0.815c-0.182-0.054-0.375-0.064-0.73-0.064H91.05v1.834H91.812z M89.259,302.378h2.768
				c0.601,0,1.019,0.054,1.394,0.161c1.105,0.311,1.802,1.051,1.802,2.22c0,1.191-0.719,2.027-2.028,2.338
				c-0.354,0.086-0.761,0.118-1.319,0.118H91.05v2.231h-1.791V302.378z"/>
			<path id="XMLID_96_" fill="#0A193C" d="M101.328,305.499c0.954,0,1.341-0.3,1.341-0.826c0-0.569-0.386-0.772-1.212-0.772h-1.073
				v1.598H101.328z M102.647,306.615c0.59,0.333,0.794,1.512,1.663,1.512c0.193,0,0.375-0.043,0.547-0.107l0.322,1.352
				c-0.365,0.139-0.805,0.182-1.137,0.182c-2.285,0-2.51-2.617-3.272-2.617h-0.386v2.51h-1.791v-7.069h2.917
				c1.931,0,2.993,0.74,2.993,2.231c0,1.051-0.665,1.77-1.856,1.984V306.615z"/>
		</g>
		<polygon id="XMLID_94_" fill="#0A193C" points="108.184,302.378 108.184,309.447 113.74,309.447 113.74,307.924 109.975,307.924 
			109.975,306.647 113.344,306.647 113.344,305.124 109.975,305.124 109.975,303.901 113.676,303.901 113.676,302.378 		"/>
		<polygon id="XMLID_93_" fill="#0A193C" points="124.329,302.378 121.605,305.618 121.583,305.618 118.858,302.378 
			117.238,302.378 117.238,309.447 119.03,309.447 119.03,305.188 119.052,305.188 121.444,308.042 121.723,308.042 
			124.114,305.188 124.136,305.188 124.136,309.447 125.927,309.447 125.927,302.378 		"/>
		<rect id="XMLID_92_" x="129.748" y="302.378" fill="#0A193C" width="1.791" height="7.069"/>
		<polygon id="XMLID_91_" fill="#0A193C" points="135.359,302.378 135.359,309.447 140.915,309.447 140.915,307.924 137.15,307.924 
			137.15,306.647 140.519,306.647 140.519,305.124 137.15,305.124 137.15,303.901 140.851,303.901 140.851,302.378 		"/>
		<path id="XMLID_88_" fill="#0A193C" d="M147.149,305.499c0.954,0,1.341-0.3,1.341-0.826c0-0.569-0.386-0.772-1.212-0.772h-1.073
			v1.598H147.149z M148.469,306.615c0.59,0.333,0.794,1.512,1.663,1.512c0.193,0,0.375-0.043,0.547-0.107l0.322,1.352
			c-0.365,0.139-0.805,0.182-1.137,0.182c-2.285,0-2.51-2.617-3.272-2.617h-0.386v2.51h-1.791v-7.069h2.917
			c1.931,0,2.993,0.74,2.993,2.231c0,1.051-0.665,1.77-1.856,1.984V306.615z"/>
	</g>
	<g>
		<path id="XMLID_87_" fill="#0A193C" d="M9.511,307.86c0.597,0.362,1.353,0.629,2.29,0.629c1.172,0,1.929-0.373,1.929-1.119
			c0-1.257-2.621-0.66-3.878-1.577c-0.394-0.288-0.639-0.714-0.639-1.385c0-1.385,1.151-2.067,2.738-2.067
			c1.076,0,2.099,0.309,2.759,0.692l-0.437,0.895c-0.575-0.288-1.406-0.554-2.248-0.554c-1.225,0-1.63,0.479-1.63,0.969
			c0,1.737,4.517,0.17,4.517,2.972c0,1.545-1.502,2.205-3.122,2.205c-1.161,0-2.109-0.309-2.791-0.756L9.511,307.86z"/>
		<polygon id="XMLID_86_" fill="#0A193C" points="17.053,302.394 17.053,303.406 19.664,303.406 19.664,309.415 20.793,309.415 
			20.793,303.406 23.403,303.406 23.403,302.394 		"/>
		<path id="XMLID_83_" fill="#0A193C" d="M28.42,303.95h0.021l1.236,2.461h-2.429L28.42,303.95z M28.047,302.363l-3.473,7.053h1.247
			l0.948-1.992h3.42l1.002,1.992h1.246l-3.601-7.053H28.047z"/>
		<polygon id="XMLID_82_" fill="#0A193C" points="41.342,302.394 41.342,307.476 41.321,307.476 36.26,302.394 35.377,302.394 
			35.377,309.415 36.505,309.415 36.505,304.259 36.527,304.259 41.662,309.415 42.472,309.415 42.472,302.394 		"/>
		<path id="XMLID_79_" fill="#0A193C" d="M48.533,308.403c0.692,0,1.268-0.064,1.758-0.202c1.172-0.341,1.886-1.108,1.886-2.408
			c0-1.311-0.756-1.96-1.822-2.237c-0.447-0.117-0.948-0.149-1.556-0.149h-1.364v4.997H48.533z M46.306,302.394h2.631
			c0.66,0,1.215,0.053,1.715,0.17c1.63,0.394,2.706,1.449,2.706,3.228c0,1.79-1.108,2.93-2.802,3.398
			c-0.575,0.16-1.215,0.224-2.003,0.224h-2.248V302.394z"/>
		<path id="XMLID_76_" fill="#0A193C" d="M59.771,303.95h0.022l1.236,2.461h-2.429L59.771,303.95z M59.398,302.363l-3.473,7.053
			h1.246l0.948-1.992h3.42l1.001,1.992h1.246l-3.601-7.053H59.398z"/>
		<path id="XMLID_73_" fill="#0A193C" d="M68.709,305.686c0.458,0,0.82-0.021,1.108-0.107c0.543-0.16,0.895-0.501,0.895-1.076
			c0-0.533-0.341-0.874-0.799-1.002c-0.298-0.085-0.618-0.096-1.065-0.096h-0.991v2.28H68.709z M66.728,302.394h2.099
			c0.533,0,1.012,0.032,1.417,0.138c0.916,0.245,1.651,0.842,1.651,1.949c0,1.204-0.863,1.811-2.014,2.003v0.021
			c0.458,0.256,0.746,1.193,1.311,1.651c0.213,0.17,0.447,0.277,0.746,0.277c0.128,0,0.33-0.021,0.49-0.064l0.234,0.959
			c-0.202,0.085-0.554,0.138-0.884,0.138c-0.533,0-0.948-0.192-1.289-0.469c-0.97-0.788-1.343-2.301-2.056-2.301h-0.575v2.716
			h-1.129V302.394z"/>
		<path id="XMLID_9_" fill="#0A193C" d="M77.806,308.403c0.692,0,1.268-0.064,1.758-0.202c1.172-0.341,1.886-1.108,1.886-2.408
			c0-1.311-0.756-1.96-1.822-2.237c-0.447-0.117-0.948-0.149-1.556-0.149h-1.364v4.997H77.806z M75.58,302.394h2.631
			c0.66,0,1.214,0.053,1.715,0.17c1.63,0.394,2.706,1.449,2.706,3.228c0,1.79-1.108,2.93-2.802,3.398
			c-0.575,0.16-1.215,0.224-2.003,0.224H75.58V302.394z"/>
	</g>
</g>
<g>
	<path fill="#FFFFFF" d="M17.699,291.056c0.688,0.52,1.65,0.832,2.82,0.832c1.456,0,2.665-0.533,2.665-1.717
		c0-1.833-3.497-1.026-4.979-2.249c-0.416-0.338-0.677-0.806-0.677-1.534c0-1.547,1.34-2.404,3.289-2.404
		c1.301,0,2.496,0.39,3.134,0.818l-0.403,0.741c-0.559-0.338-1.56-0.702-2.665-0.702c-1.677,0-2.34,0.715-2.34,1.495
		c0,2.509,5.655,0.455,5.655,3.822c0,1.755-1.717,2.587-3.68,2.587c-1.456,0-2.6-0.403-3.302-0.949L17.699,291.056z"/>
	<path fill="#FFFFFF" d="M29.542,284.009h0.689l4.381,8.606h-1.079l-1.365-2.73h-4.484l-1.326,2.73h-1.066L29.542,284.009z
		 M31.739,289.04l-1.846-3.666h-0.026l-1.781,3.666H31.739z"/>
	<path fill="#FFFFFF" d="M35.002,284.048l3.666,7.241h0.026l3.483-7.241h1.066l-4.251,8.606h-0.65l-4.407-8.606H35.002z"/>
	<path fill="#FFFFFF" d="M44.66,284.048h5.902v0.858h-4.94v2.912h4.459v0.845h-4.459v3.094h5.019v0.858h-5.98V284.048z"/>
	<path fill="#FFFFFF" d="M55.767,289.199c0.392-8.147,9.407-6.412,11.956-8.26c0.42-0.309,0.672-0.7,0.672-1.26
		c0-1.093-1.288-1.736-3.864-1.736c-2.828,0-5.348,0.756-7.448,1.848l-1.708-3.388c2.548-1.428,5.601-2.38,9.185-2.38
		c4.34,0,8.231,1.596,8.231,5.712c0,7.979-12.432,3.948-12.432,9.072v0.195h12.684v3.612H55.599L55.767,289.199z"/>
	<path fill="#FFFFFF" d="M75.114,283.487c0-5.656,4.536-9.464,9.856-9.464c5.319,0,9.855,3.808,9.855,9.464
		c0,5.796-4.62,9.408-9.855,9.408C79.734,292.896,75.114,289.283,75.114,283.487z M90.431,283.487c0-3.22-2.353-5.544-5.46-5.544
		c-3.108,0-5.46,2.324-5.46,5.544c0,3.192,2.352,5.488,5.46,5.488C88.106,288.976,90.431,286.68,90.431,283.487z"/>
	<path fill="#FFFFFF" d="M96.534,276.401c0-2.912,2.352-4.872,5.067-4.872c2.717,0,5.068,1.96,5.068,4.872
		c0,2.968-2.408,4.844-5.068,4.844C98.914,281.245,96.534,279.369,96.534,276.401z M113.306,271.865h3.221l-15.372,18.536h-3.221
		L113.306,271.865z M103.982,276.401c0-1.428-1.036-2.436-2.381-2.436c-1.372,0-2.407,1.008-2.407,2.436
		c0,1.372,1.035,2.38,2.407,2.38S103.982,277.773,103.982,276.401z M108.07,285.697c0-2.912,2.352-4.872,5.067-4.872
		s5.068,1.96,5.068,4.872c0,2.968-2.408,4.844-5.068,4.844C110.45,290.541,108.07,288.665,108.07,285.697z M115.518,285.697
		c0-1.428-1.036-2.436-2.38-2.436c-1.372,0-2.408,1.008-2.408,2.436c0,1.372,1.036,2.38,2.408,2.38S115.518,287.069,115.518,285.697
		z"/>
	<path fill="#FFFFFF" d="M122.594,288.377c0-2.6,1.911-4.394,4.745-4.394s4.745,1.794,4.745,4.394c0,2.679-1.95,4.368-4.745,4.368
		C124.531,292.745,122.594,291.056,122.594,288.377z M131.07,288.377c0-2.041-1.404-3.536-3.731-3.536
		c-2.34,0-3.731,1.495-3.731,3.536s1.392,3.511,3.731,3.511C129.666,291.888,131.07,290.418,131.07,288.377z"/>
	<path fill="#FFFFFF" d="M134.241,284.048h0.767l6.786,6.891h0.026v-6.891h0.962v8.567h-0.663l-6.89-6.994h-0.026v6.994h-0.962
		V284.048z"/>
</g>
</svg>
