<?xml version="1.0" encoding="utf-8"?>
<!-- Generator: Adobe Illustrator 17.0.0, SVG Export Plug-In . SVG Version: 6.00 Build 0)  -->
<!DOCTYPE svg PUBLIC "-//W3C//DTD SVG 1.1//EN" "http://www.w3.org/Graphics/SVG/1.1/DTD/svg11.dtd">
<svg version="1.1" id="Layer_1" xmlns="http://www.w3.org/2000/svg" xmlns:xlink="http://www.w3.org/1999/xlink" x="0px" y="0px"
	 width="160px" height="600px" viewBox="0 0 160 600" enable-background="new 0 0 160 600" xml:space="preserve">
<g>
	<g>
		<g id="XMLID_128_">
			<path id="XMLID_132_" fill="#F8F8F8" d="M41.932,260.74c0.606,0,0.923-0.057,1.168-0.129c0.677-0.202,0.952-0.62,0.952-1.154
				s-0.275-0.909-0.909-1.096c-0.245-0.072-0.505-0.087-0.981-0.087h-1.255v2.466H41.932z M38.5,256.227h3.72
				c0.808,0,1.37,0.072,1.874,0.216c1.486,0.418,2.423,1.413,2.423,2.985c0,1.601-0.966,2.725-2.726,3.144
				c-0.476,0.115-1.023,0.159-1.773,0.159h-1.111v2.999H38.5V256.227z"/>
			<path id="XMLID_129_" fill="#F8F8F8" d="M54.725,260.423c1.283,0,1.802-0.404,1.802-1.11c0-0.764-0.519-1.038-1.629-1.038h-1.442
				v2.148H54.725z M56.498,261.923c0.793,0.447,1.067,2.033,2.236,2.033c0.259,0,0.504-0.058,0.735-0.144l0.433,1.817
				c-0.49,0.188-1.082,0.245-1.528,0.245c-3.072,0-3.374-3.518-4.398-3.518h-0.519v3.374h-2.408v-9.503h3.922
				c2.596,0,4.023,0.995,4.023,2.999c0,1.413-0.894,2.379-2.495,2.668V261.923z"/>
		</g>
		<polygon id="XMLID_127_" fill="#F8F8F8" points="63.941,256.227 63.941,265.73 71.411,265.73 71.411,263.682 66.35,263.682 
			66.35,261.966 70.878,261.966 70.878,259.918 66.35,259.918 66.35,258.274 71.325,258.274 71.325,256.227 		"/>
		<polygon id="XMLID_126_" fill="#F8F8F8" points="85.646,256.227 81.983,260.582 81.954,260.582 78.291,256.227 76.114,256.227 
			76.114,265.73 78.522,265.73 78.522,260.004 78.551,260.004 81.767,263.841 82.142,263.841 85.357,260.004 85.386,260.004 
			85.386,265.73 87.794,265.73 87.794,256.227 		"/>
		<rect id="XMLID_125_" x="92.93" y="256.227" fill="#F8F8F8" width="2.408" height="9.503"/>
		<polygon id="XMLID_124_" fill="#F8F8F8" points="100.473,256.227 100.473,265.73 107.943,265.73 107.943,263.682 102.882,263.682 
			102.882,261.966 107.41,261.966 107.41,259.918 102.882,259.918 102.882,258.274 107.856,258.274 107.856,256.227 		"/>
		<path id="XMLID_121_" fill="#F8F8F8" d="M116.323,260.423c1.283,0,1.802-0.404,1.802-1.11c0-0.764-0.519-1.038-1.629-1.038h-1.442
			v2.148H116.323z M118.097,261.923c0.793,0.447,1.067,2.033,2.236,2.033c0.259,0,0.504-0.058,0.735-0.144l0.433,1.817
			c-0.49,0.188-1.082,0.245-1.528,0.245c-3.072,0-3.374-3.518-4.398-3.518h-0.519v3.374h-2.408v-9.503h3.922
			c2.596,0,4.023,0.995,4.023,2.999c0,1.413-0.894,2.379-2.495,2.668V261.923z"/>
	</g>
	<g>
		<path id="XMLID_120_" fill="#F8F8F8" d="M32.667,247.42c0.778,0.472,1.764,0.819,2.986,0.819c1.528,0,2.514-0.486,2.514-1.458
			c0-1.639-3.417-0.861-5.056-2.056c-0.514-0.375-0.833-0.931-0.833-1.806c0-1.806,1.5-2.694,3.569-2.694
			c1.403,0,2.737,0.403,3.598,0.903l-0.569,1.167c-0.75-0.375-1.833-0.722-2.931-0.722c-1.598,0-2.125,0.625-2.125,1.264
			c0,2.264,5.889,0.222,5.889,3.875c0,2.014-1.959,2.875-4.07,2.875c-1.514,0-2.75-0.403-3.639-0.986L32.667,247.42z"/>
		<polygon id="XMLID_119_" fill="#F8F8F8" points="42.5,240.295 42.5,241.614 45.903,241.614 45.903,249.448 47.375,249.448 
			47.375,241.614 50.778,241.614 50.778,240.295 		"/>
		<path id="XMLID_116_" fill="#F8F8F8" d="M57.32,242.323h0.028l1.611,3.208h-3.167L57.32,242.323z M56.834,240.253l-4.528,9.195
			h1.625l1.236-2.597h4.458l1.306,2.597h1.625l-4.695-9.195H56.834z"/>
		<polygon id="XMLID_115_" fill="#F8F8F8" points="74.167,240.295 74.167,246.92 74.14,246.92 67.541,240.295 66.389,240.295 
			66.389,249.448 67.861,249.448 67.861,242.725 67.889,242.725 74.584,249.448 75.64,249.448 75.64,240.295 		"/>
		<path id="XMLID_112_" fill="#F8F8F8" d="M83.542,248.128c0.903,0,1.653-0.083,2.292-0.264c1.528-0.444,2.458-1.444,2.458-3.139
			c0-1.709-0.986-2.556-2.375-2.917c-0.583-0.153-1.237-0.194-2.028-0.194h-1.778v6.514H83.542z M80.639,240.295h3.431
			c0.861,0,1.584,0.069,2.237,0.222c2.125,0.514,3.528,1.889,3.528,4.209c0,2.333-1.444,3.819-3.653,4.431
			c-0.75,0.208-1.584,0.292-2.612,0.292h-2.931V240.295z"/>
		<path id="XMLID_109_" fill="#F8F8F8" d="M98.194,242.323h0.028l1.611,3.208h-3.167L98.194,242.323z M97.708,240.253l-4.528,9.195
			h1.625l1.236-2.597h4.459l1.306,2.597h1.625l-4.695-9.195H97.708z"/>
		<path id="XMLID_106_" fill="#F8F8F8" d="M109.847,244.587c0.597,0,1.069-0.028,1.444-0.139c0.708-0.208,1.167-0.653,1.167-1.403
			c0-0.695-0.445-1.139-1.042-1.306c-0.389-0.111-0.806-0.125-1.389-0.125h-1.292v2.973H109.847z M107.264,240.295H110
			c0.694,0,1.319,0.042,1.848,0.181c1.194,0.319,2.153,1.097,2.153,2.542c0,1.57-1.125,2.362-2.625,2.612v0.028
			c0.597,0.333,0.972,1.556,1.709,2.153c0.278,0.222,0.583,0.361,0.972,0.361c0.167,0,0.431-0.028,0.639-0.083l0.306,1.25
			c-0.264,0.111-0.722,0.181-1.153,0.181c-0.694,0-1.236-0.25-1.681-0.611c-1.264-1.028-1.75-3-2.681-3h-0.75v3.542h-1.472V240.295z
			"/>
		<path id="XMLID_103_" fill="#F8F8F8" d="M121.708,248.128c0.903,0,1.653-0.083,2.292-0.264c1.528-0.444,2.459-1.444,2.459-3.139
			c0-1.709-0.986-2.556-2.375-2.917c-0.583-0.153-1.237-0.194-2.028-0.194h-1.778v6.514H121.708z M118.805,240.295h3.431
			c0.861,0,1.583,0.069,2.237,0.222c2.125,0.514,3.528,1.889,3.528,4.209c0,2.333-1.444,3.819-3.653,4.431
			c-0.75,0.208-1.584,0.292-2.612,0.292h-2.931V240.295z"/>
	</g>
</g>
</svg>
