<?xml version="1.0" encoding="utf-8"?>
<!-- Generator: Adobe Illustrator 17.0.0, SVG Export Plug-In . SVG Version: 6.00 Build 0)  -->
<!DOCTYPE svg PUBLIC "-//W3C//DTD SVG 1.1//EN" "http://www.w3.org/Graphics/SVG/1.1/DTD/svg11.dtd">
<svg version="1.1" id="Layer_1" xmlns="http://www.w3.org/2000/svg" xmlns:xlink="http://www.w3.org/1999/xlink" x="0px" y="0px"
	 width="81.159px" height="10.87px" viewBox="0 0 81.159 10.87" enable-background="new 0 0 81.159 10.87" xml:space="preserve">
<g>
	<path fill="#FFFFFF" d="M2.043,9.491V1.317h3.734c1.501,0,3.039,0.57,3.039,2.158c0,0.818-0.435,1.414-1.241,1.65V5.15
		c1.067,0.174,1.7,0.855,1.7,1.897c0,1.961-1.836,2.444-3.362,2.444H2.043z M5.59,4.517c0.781,0,1.104-0.285,1.104-0.744
		c0-0.521-0.41-0.695-1.117-0.695H4.064v1.439H5.59z M5.69,7.73c1.104,0,1.464-0.235,1.464-0.757c0-0.496-0.298-0.744-1.08-0.744
		h-2.01V7.73H5.69z"/>
	<path fill="#FFFFFF" d="M15.353,9.615c-2.704,0-4.64-1.588-4.64-4.181s1.936-4.181,4.64-4.181c2.705,0,4.64,1.588,4.64,4.181
		S18.058,9.615,15.353,9.615z M15.353,7.829c1.688,0,2.519-1.005,2.519-2.395S17.041,3.04,15.353,3.04
		c-1.687,0-2.519,1.005-2.519,2.395S13.667,7.829,15.353,7.829z"/>
	<path fill="#FFFFFF" d="M26.071,9.615c-2.704,0-4.64-1.588-4.64-4.181s1.936-4.181,4.64-4.181c2.705,0,4.64,1.588,4.64,4.181
		S28.776,9.615,26.071,9.615z M26.071,7.829c1.688,0,2.519-1.005,2.519-2.395S27.758,3.04,26.071,3.04
		c-1.687,0-2.518,1.005-2.518,2.395S24.384,7.829,26.071,7.829z"/>
	<path fill="#FFFFFF" d="M36.505,4.951l3.833,4.54h-2.604L35.128,6.34l-0.472,0.472v2.68h-2.071V1.317h2.071v3.126h0.025
		l2.853-3.126h2.605L36.505,4.951z"/>
	<path fill="#FFFFFF" d="M44.63,1.317h1.799l4.788,4.975h0.025V1.317h2.071v8.175h-1.712l-4.875-5.099h-0.025v5.099H44.63V1.317z"/>
	<path fill="#FFFFFF" d="M59.826,9.615c-2.704,0-4.64-1.588-4.64-4.181s1.936-4.181,4.64-4.181c2.705,0,4.64,1.588,4.64,4.181
		S62.531,9.615,59.826,9.615z M59.826,7.829c1.688,0,2.519-1.005,2.519-2.395S61.513,3.04,59.826,3.04
		c-1.687,0-2.519,1.005-2.519,2.395S58.139,7.829,59.826,7.829z"/>
	<path fill="#FFFFFF" d="M67.295,1.317l1.947,5.16h0.024l1.874-5.16h1.823l2.06,5.16h0.024l1.786-5.16h2.283l-3.188,8.212h-1.736
		L72.07,4.195h-0.024l-1.91,5.334h-1.787l-3.361-8.212H67.295z"/>
</g>
</svg>
